<?xml version="1.0" encoding="UTF-8"?>
<svg version="1.1" viewBox="0 0 628.3 502.5" xml:space="preserve" xmlns="http://www.w3.org/2000/svg">
<style type="text/css">
	.st0{fill:url(#i);}
	.st1, .st2{fill:#FFFFFF;}
	.st3{fill:url(#h);stroke:url(#g);stroke-width:8.5;stroke-linecap:round;stroke-linejoin:round;stroke-miterlimit:37.7953;}
	.st4{fill:url(#f);stroke:url(#e);stroke-width:8.5;stroke-linecap:round;stroke-linejoin:round;}
	.st5{fill:url(#d);stroke:url(#c);stroke-width:8.5;stroke-linecap:round;stroke-linejoin:round;stroke-miterlimit:15.1181;}
	.st6{fill:url(#b);stroke:url(#a);stroke-width:8.5;stroke-linecap:round;stroke-linejoin:round;stroke-miterlimit:10;}
	.st7{fill:url(#o);stroke:url(#n);stroke-width:8.5;stroke-linecap:round;stroke-linejoin:round;}
	.st8{fill:url(#m);stroke:url(#l);stroke-width:8.5;stroke-linecap:round;stroke-linejoin:round;}
	.st9{fill:url(#k);stroke:url(#j);stroke-width:8.5;stroke-linecap:round;stroke-linejoin:round;}
</style>
<linearGradient id="i" x1="-8.4767" x2="607.12" y1="566.9" y2="-48.7" gradientTransform="matrix(1 0 0 -1 0 558.81)" gradientUnits="userSpaceOnUse">
	<stop stop-color="#9478DB" offset="0"/>
	<stop stop-color="#5E95CC" offset="1"/>
</linearGradient>
<path class="st0" d="m628.1 366.9c-1.9-24-13.1-48.1-30.8-66.2-8.4-8.6-20.5-18.1-36.8-24.8 2.5 0 4.9-0.3 7.3-1h0.2c0.4-0.1 0.9-0.2 1.4-0.4 5.9-1.9 11.3-5.6 15.1-10.5 7.1-9.1 8.5-21.7 3.6-32.2l-3.5-7.8 4.3-7.3c6.5-10.4 6.2-23.5-0.8-33.6-6.2-9-16.4-14.1-27.5-13.5-0.6 0-1.1 0.1-1.5 0.1h-0.5l-8.6 1-5.5-6.3c-7.6-9.1-20-12.9-31.7-9.9-10.8 2.9-19.3 11.5-22.2 22.3-0.2 0.5-0.3 1-0.3 1.4 0 0.1-0.1 0.3-0.1 0.4l-1.7 8.5-7.2 3c-1.8 0.7-3.6 1.6-5.2 2.6 0.3-9.3 0.7-17.1 1.1-25.1v-0.9c0.7-13.1 1.5-28 1.8-52.5 0.1-9.3-3.1-18.1-9-25.3 9.6-7.6 16.8-15.5 20.9-26.8 3.7-10.2 4.3-26.6-1.9-38.4-7.4-14.3-22-23.4-38.2-23.7-5.6-0.1-11 0.9-16 2.8-4.3-1.8-8.9-2.8-15.6-2.8-9.6 0-15.1 2.4-19.8 4.8-8.6 4.4-15.5 11.5-19.8 20.7-3.3 6.9-4 12.6-4 19.1 0 1.2 0 2.4 0.1 3.6-2.6-0.6-5.2-1.1-7.9-1.3h-1.1c-17.7-1-33.6 6.2-44.7 20.2-3.1 3.8-6.1 7.7-9.4 11.8-1.5-2.6-3.2-5.2-4.9-7.5-2.2-3.1-4.8-5.9-7.9-8.8-9.4-9.2-21.3-14-34.4-14-12.5 0-23.7 4-33.4 11.7-0.3 0.2-0.5 0.4-0.7 0.6-6 5-10.5 11-13.4 17.7-15.6-11.8-38.7-22.4-70.7-22.4h-0.2c-3.8 0-7.6 0.2-12.9 0.5-0.6 0-1 0.1-1.4 0.1-0.2 0-0.5 0-0.7 0.1-32.6 4.6-59.1 20.2-76.6 44.9-15.4 21.8-22.6 49.4-20.2 77.7 2.5 29.9 15.3 57.6 35.8 78 7.2 7.1 15.1 13.2 23.7 18.1-1 0-2-0.1-2.9-0.1-20.6 0-39.4 8.3-54.4 23.9-27.6 29-40 80.9-36.9 154.5 0 0.2 0 0.5 0.1 0.7 0.1 1.1 0.3 2.4 0.6 3.9 5.7 25.4 29.5 43.4 57.7 43.9h1.1c23.6 0 43.3-12.2 52.9-31.9 6.4 1.5 11.9 1.9 15.1 2.1h3.3c3.1-0.1 8.8-0.4 15.6-2.1 9.8 19.8 30.3 32.2 53.9 31.8 22.8-0.3 42.6-12 52.4-29.8 21.2 19.2 48.6 29.9 77.8 29.9 22 0 43.4-6.2 62-18 12.7-8 23.6-18.4 32.3-30.4 3.7 5.1 7.8 9.9 12.3 14.4 22.4 22.3 52.3 34.1 86.4 34.1h3.7c53.3-1.5 77.7-31.1 78.2-59.6 0.1-6.5-1-12.9-3.2-18.9 6.9-3.8 12.8-9.5 17.1-16.7 6.7-11 9.5-24.9 8.3-40.4zm-391.4-48.2c-4.2-7.4-9-13.8-14.4-19.3-6.3-6.6-13.4-11.9-21-15.8 6-2.6 11-5.6 15.2-8.7 2.2 2.5 4.7 4.8 7.5 6.9 6.4 4.8 13.8 7.9 22 9.2 3.1 0.5 6.1 0.7 9.1 0.7 3.5 0 6.9-0.3 10.2-1-11 7.4-20.7 16.9-28.6 28zm53.6-41.2c2.5-2.3 4.8-4.9 6.9-7.8 0.3-0.4 0.5-0.7 0.8-1.1 3.1-4.3 6.3-8.8 9.6-13.5 1.6 2.5 3.2 5.1 4.7 7.7 0.1 0.2 0.3 0.4 0.4 0.6s0.2 0.3 0.3 0.5c1.6 2.4 3.2 4.6 4.7 6.6 0.1 0.1 0.2 0.2 0.2 0.3-9.5 1.1-18.8 3.4-27.6 6.7zm92.6-91.5c0-0.1-0.1-0.1-0.1-0.2-3.8-5.9-7.8-12-11.7-18.1 2.8-3.6 5.9-7.5 8.9-11.3 1.6-2 3.2-4 4.7-6-0.8 14.3-1.4 25.8-1.8 35.6zm39.2 126.8c-0.2 0.2-0.3 0.5-0.5 0.7-9.8-12.2-22-22.3-35.6-29.6 2.9-1.7 5.6-3.7 8-5.9 8 8.6 19.6 13.5 33.3 13.5h2.6c5.5-0.2 11-1.3 16.2-3.1-9.3 6.8-17.3 14.9-24 24.4z"/>
<path class="st1" d="m578.1 236.3c3.2 6.8 2.3 15-2.3 20.9-2.5 3.2-6.1 5.7-10.1 6.9-0.2 0.1-0.4 0.1-0.7 0.2-3.1 0.8-6.3 0.8-9.5 0.1l-13.9-3.1-10.7 9.8c-0.1 0.1-0.3 0.2-0.4 0.3-2.3 1.9-4.8 3.3-7.5 4.1-1.9 0.6-3.8 0.8-5.4 0.8-2.8 0-5-0.6-6-0.9-0.5-0.1-1-0.3-1.5-0.5-7.2-2.8-12.2-9.5-12.7-17.2l-1.3-14-12.4-6.9c-6.6-3.4-10.7-10.2-10.7-18v-0.8c0.4-8 5.3-14.9 12.5-17.6l12.8-5.4 2.8-14.2c0.1-0.3 0.1-0.6 0.2-0.9 1.9-7.2 7.5-12.8 14.5-14.7 7.6-2 15.6 0.5 20.5 6.4l9.4 10.7 14.3-1.7c0.4 0 0.7-0.1 1.1-0.1 7.3-0.4 14 2.9 18 8.8 4.5 6.4 4.7 15 0.5 21.6l-7.3 12.3 5.8 13.1z"/>
<path class="st1" d="m479.4 28.9c-5.5-10.7-16.4-17.5-28.6-17.7-5.8-0.1-11.3 1.3-16 4-0.1-0.1-0.3-0.2-0.4-0.2l-0.1-0.1c-4.6-2.5-8-3.7-15-3.7-7.3 0-10.9 1.6-14.8 3.6-6.5 3.3-11.6 8.7-14.9 15.6-2.4 5-2.9 9-2.9 14.3 0 12.4 4.5 22.3 14.1 31.2 4 3.6 5.7 5.1 14 11.3-5.1 2.6-9.2 6.3-12.2 11 0-0.7 0.1-1.4 0.1-2.2 0-6.5-1.5-12.6-4.5-18.1s-7.3-10.1-12.8-13.7c-5.5-3.5-11.7-5.6-18.5-6.2h-0.4c-14.4-0.9-26.8 4.7-35.8 16.1-3.9 4.8-7.9 9.9-12 15.1-2.3 3-4.7 6-7 9-2.5-4.4-5.3-8.7-8-12.9-1.4-2.5-3-5-4.7-7.3-1.9-2.6-4.1-5-6.6-7.3-7.3-7.2-16.6-11-26.8-11-9.9 0-18.8 3.1-26.5 9.3l-0.2 0.2c-7.5 6.2-12.1 14.3-13.3 23.4-0.3 2.5-0.4 5.1-0.2 7.6-0.8-0.9-1.7-1.8-2.5-2.7-13.5-13.8-37.5-30.3-75.7-30.3h-0.2c-3.7 0-7.5 0.2-12.4 0.5-0.3 0-0.7 0.1-1 0.1-29.5 4.2-53.5 18.2-69.2 40.4-13.9 19.6-20.4 44.6-18.2 70.4 2.3 27.3 13.9 52.6 32.6 71.1 20.4 20.2 47.6 30.9 78.7 30.9 1.1 0 2.3 0 3.4-0.1 28.3-0.8 47.2-10.1 57.6-22.7l1.2 2.4c2.6 4.9 6.3 9.2 10.9 12.7 4.9 3.7 10.6 6.1 17.1 7.1 2.5 0.4 5 0.6 7.4 0.6 13.2 0 24.9-6.1 33.4-17.6 0 0 0.1-0.1 0.1-0.2 4.5-6.3 9.2-12.9 13.9-19.7l5.5-7.9c1.2 1.9 2.4 3.8 3.6 5.7 3.4 5.4 6.9 10.9 10.2 16.4 0.1 0.2 0.2 0.3 0.3 0.5 1.4 2.1 2.9 4.2 4.3 6 1.9 2.5 4.1 4.8 6.4 6.9l0.2 0.2c11.4 9.5 25.6 12 40.1 6.9 10.4-3.6 18-10.5 22-20 3.9 14 16 22.8 32.2 22.8h2.1c17.9-0.8 36.2-12.1 36-29.6v-0.2c-1.2-44.8-0.1-64.2 1-84.6 0.8-14.1 1.5-28.7 1.8-52 0.1-7.5-2.9-14.7-8.4-20.2-2-2-4.4-3.8-7-5.3 1.8-1.6 3.8-3.2 5.7-4.6 10.8-7.9 18.3-14.9 22.2-25.6 2.9-7.9 3.2-21-1.3-29.6zm-252.2 184.3-0.1 0.1c-0.5 0.8-1.1 1.6-1.6 2.4-1.3-3.1-3-6.1-5.1-8.8h0.2c6.2-1 11.6-3.6 16.1-7.5-3.2 4.6-6.4 9.2-9.5 13.8zm19.7-28.4c3.3-7.9 4.6-17.4 3.8-28-0.3-3.4-0.7-6.7-1.4-10.1 3.8 6.1 7.6 12.2 11.5 18.3-4.7 6.7-9.3 13.3-13.9 19.8zm146.4 38.2c-0.7-1.2-1.4-2.4-2.2-3.5-5.8-9.3-11.7-18.6-17.5-27.7-5.3-8.2-10.6-16.4-16-24.6 4.5-5.8 9.1-11.7 13.8-17.6 5.6-7 11.2-14.3 16.9-21.5 1.4-1.8 2.8-3.6 4.2-5.4 1.8-2.4 3.5-4.9 4.8-7.5 0.2-0.3 0.4-0.7 0.6-1-3.8 61.8-4.9 86.7-4.6 108.8z"/>
<path class="st2" d="m587.1 418h-0.2c5.4 7.1 8.3 15.7 8.1 24.7-0.4 23.4-21.4 47.6-67.5 48.9h-3.4c-31.1 0-58.2-10.6-78.6-30.9-8.1-8.1-14.9-17.4-20.2-27.7-17.2 34.6-53 58.5-94.2 58.5-33.5 0-63.5-15.8-82.7-40.3 0 0.7-0.1 1.5-0.1 2.2 0 0.9-0.2 1.8-0.4 2.7-4.6 20.5-24 35-47.2 35.3-23.1 0.4-41.7-13.3-47.3-34.7-9 4.3-17.9 4.8-22.6 5h-1.8c-4.7-0.3-13.6-0.8-22.6-5-5.6 21.2-23.7 34.7-46.4 34.7h-0.9c-23.2-0.4-42.6-14.9-47.2-35.3-0.2-0.9-0.3-1.8-0.4-2.7-3-70.5 8.4-119.7 33.9-146.4 12.8-13.4 28.8-20.5 46.4-20.5 13 0 26.2 3.9 38.1 11.1 12-7.2 25.2-11.1 38.1-11.1 17.5 0 33.5 7 46.3 20.4 8.8 9.1 15.8 20.9 21.3 35.3 16.7-36.1 53.2-61.2 95.5-61.2 39.1 0 73.2 21.4 91.3 53.1 2.5-5.3 5.4-10.3 8.7-15 15.7-22.2 39.6-36.1 69.1-40.4 0.3 0 0.7-0.1 1-0.1 4.9-0.4 8.7-0.5 12.4-0.5h0.1c38.2 0 62.2 16.5 75.7 30.3 15.9 16.3 26 37.9 27.7 59.4 2.2 26.8-9.9 46.9-30 50.2z"/>
<linearGradient id="h" x1="-101.67" x2="-101.67" y1="378.99" y2="402.94" gradientTransform="matrix(3.7795 0 0 3.7795 911.98 -1257.2)" gradientUnits="userSpaceOnUse">
	<stop stop-color="#fff" offset="0"/>
	<stop stop-color="#939BEB" offset=".67"/>
</linearGradient>
<linearGradient id="g" x1="-113.28" x2="-89.999" y1="390.98" y2="390.98" gradientTransform="matrix(3.7795 0 0 3.7795 911.98 -1257.2)" gradientUnits="userSpaceOnUse">
	<stop stop-color="#444B9B" offset="0"/>
	<stop stop-color="#424D9B" offset="1"/>
</linearGradient>
<path class="st3" d="m566.8 203.1-11.4 19.2 9.1 20.3c0.9 1.8 0.6 3.9-0.6 5.4-0.6 0.8-1.6 1.4-2.6 1.7-0.8 0.2-1.6 0.2-2.4 0l-21.7-4.9-16.5 15.1c-0.7 0.6-1.4 1-2.1 1.2-0.9 0.3-2 0.1-3.1-0.2-1.8-0.7-3.1-2.4-3.2-4.4l-2.1-22-19.5-10.9c-1.9-0.9-2.7-2.7-2.7-4.7 0.1-2 1.2-3.8 3-4.4l20.4-8.7 4.4-21.9c0.5-1.9 1.9-3.5 3.8-4s4.1 0.1 5.3 1.6l14.8 16.8 22.1-2.7c2-0.1 3.8 0.6 4.9 2.3 1.1 1.5 1.1 3.7 0.1 5.2z"/>
<linearGradient id="f" x1="-128.2" x2="-128.2" y1="342.03" y2="405.37" gradientTransform="matrix(3.7795 0 0 3.7795 919.32 -1266.5)" gradientUnits="userSpaceOnUse">
	<stop stop-color="#F8F8FF" offset="0"/>
	<stop stop-color="#929BEA" offset=".67"/>
</linearGradient>
<linearGradient id="e" x1="-141.24" x2="-115.25" y1="373.7" y2="373.7" gradientTransform="matrix(3.7795 0 0 3.7795 919.32 -1266.5)" gradientUnits="userSpaceOnUse">
	<stop stop-color="#52439F" offset="0"/>
	<stop stop-color="#424D9B" offset="1"/>
</linearGradient>
<path class="st4" d="m450.6 26.2c-6.1-0.1-12.1 3-15 9.3l-1 2.2-0.4-1.6c-0.7-2.6-3.9-6.3-7-8-2.6-1.4-3.5-1.9-7.9-1.9-4.2 0-5.4 0.6-7.9 1.9-3.5 1.8-6.3 4.7-8.2 8.7-1.1 2.3-1.4 3.9-1.4 7.8 0 8.1 2.7 14.1 9.2 20.1 3.5 3.2 4.7 4.2 13.3 10.7 2.9 2.2 6.5 5.3 7.9 6.9 2.7 3 2.1 4 2.7 2.8 0.5-1 8.1-8.4 14.8-13.2 10.2-7.4 14.6-12.2 16.9-18.6 1.8-4.9 1.6-13.5-0.5-17.5-3.2-6.3-9.4-9.5-15.5-9.6zm-18.7 72c-9.3 0.1-18.2 4.9-19 16.1-5.4 87.3-5.2 101.2-3.9 135.5 2 25.5 41.7 15.7 41.5 1.4-2-75.4 2.2-79.1 2.7-137.2 0.1-9.9-10.8-15.9-21.3-15.8z"/>
<linearGradient id="d" x1="-202.02" x2="-202.02" y1="353.18" y2="404.09" gradientTransform="matrix(3.7795 0 0 3.7795 911.98 -1257.2)" gradientUnits="userSpaceOnUse">
	<stop stop-color="#F7F6FF" offset="0"/>
	<stop stop-color="#BCABFF" offset=".67"/>
</linearGradient>
<linearGradient id="c" x1="-226.29" x2="-177.75" y1="378.63" y2="378.63" gradientTransform="matrix(3.7795 0 0 3.7795 911.98 -1257.2)" gradientUnits="userSpaceOnUse">
	<stop stop-color="#9377DA" offset="0"/>
	<stop stop-color="#8D7AD8" offset="1"/>
</linearGradient>
<path class="st5" d="m147.2 82.1c-3.7 0-7.4 0.2-11.3 0.5-112.2 16.1-93.8 185.8 24.7 182.9 68-1.8 64.5-58.9 23.4-61.4-15.6 6.1-31.1 9.2-46.7 2l80.8-14c36.5-5.8 19-110.1-70.9-110zm2.1 54.3c6.7 0 16.6 1.1 21.6 7.6l-50.7 9.7c5.7-14.5 22.2-16.8 22.2-16.8s2.9-0.5 6.9-0.5z"/>
<linearGradient id="b" x1="309.11" x2="309.11" y1="639.52" y2="832.33" gradientTransform="translate(0 -566.78)" gradientUnits="userSpaceOnUse">
	<stop stop-color="#FCFCFF" offset="0"/>
	<stop stop-color="#A09FF4" offset=".67"/>
</linearGradient>
<linearGradient id="a" x1="226.09" x2="392.13" y1="736.02" y2="736.02" gradientTransform="translate(0 -566.78)" gradientUnits="userSpaceOnUse">
	<stop stop-color="#8C7AD7" offset="0"/>
	<stop stop-color="#4B489E" offset="1"/>
</linearGradient>
<path class="st6" d="m310.7 123.8c1.6-2 3-3.8 4.2-5.6 1.2-1.7 2.5-3.3 3.9-4.9 4-5 8-10 11.9-15s7.8-10 11.9-15c6-7.6 13.7-11.1 23.1-10.5 4.4 0.4 8.3 1.7 11.7 3.9s6 5 7.8 8.3 2.7 7 2.7 11-1.2 7.9-3.6 11.7c-1 2-2.2 3.9-3.6 5.7s-2.8 3.6-4.2 5.4c-5.6 7.2-11.2 14.4-16.8 21.5s-11.2 14.3-16.8 21.5c-0.4 0.8-0.9 1.6-1.5 2.3s-1.2 1.6-1.8 2.5l3.6 6c6 9.2 11.9 18.4 17.9 27.5 5.9 9.1 11.7 18.4 17.5 27.8 1.8 2.6 3.1 5.3 4 8.1s1.1 5.8 0.8 9c-1.2 9.6-6.2 15.9-15 18.9-9.6 3.4-18.1 2-25.5-4.2-1.6-1.4-3.1-2.9-4.3-4.7-1.3-1.7-2.6-3.5-3.8-5.3-3.4-5.6-6.9-11.1-10.4-16.6s-7-11-10.4-16.4c-1-1.4-1.9-2.6-2.7-3.8-0.8-1.1-1.7-2.4-2.7-4-1 1.2-1.9 2.3-2.6 3.2s-1.3 1.9-1.9 2.8c-4.6 6.6-9.2 13.2-13.8 19.8s-9.2 13.1-13.8 19.5c-6.8 9.2-15.6 12.9-26.4 11.1-4-0.6-7.5-2-10.4-4.2s-5.2-4.8-6.8-7.8-2.5-6.3-2.5-9.9c-0.1-3.6 0.6-7.2 2.3-10.8 1-2 2.1-3.8 3.3-5.5s2.4-3.5 3.6-5.3c6.4-9.4 12.8-18.7 19.4-27.9 6.5-9.2 13-18.6 19.6-28.2l-3.6-6-30-48c-3.6-6-5.1-11.7-4.4-17.1s3.3-10 8-13.8c5-4 10.7-6 17.1-6s11.9 2.3 16.5 6.9c1.8 1.6 3.4 3.4 4.8 5.3s2.7 4 3.9 6.2c2.8 4.2 5.4 8.5 8 12.8 2.5 4.3 5.1 8.7 7.9 13 0.8 0.9 2.1 2.6 3.9 4.8z"/>
<linearGradient id="o" x1="493.31" x2="525.31" y1="1517.5" y2="1636.7" gradientTransform="translate(.00012207 -1218.8)" gradientUnits="userSpaceOnUse">
	<stop stop-color="#fff" offset="0"/>
	<stop stop-color="#87BAF3" offset="1"/>
</linearGradient>
<linearGradient id="n" x1="423.26" x2="606.67" y1="1603.7" y2="1603.7" gradientTransform="translate(.00012207 -1218.8)" gradientUnits="userSpaceOnUse">
	<stop stop-color="#668FCE" offset="0"/>
	<stop stop-color="#5F93CB" offset="1"/>
</linearGradient>
<path class="st7" d="m513.7 293.2c-3.7 0-7.4 0.2-11.3 0.5-112.1 16.1-93.7 185.8 24.7 182.9 68-1.8 64.5-58.9 23.4-61.4-15.6 6.1-31.1 9.2-46.7 2l80.8-14c36.5-5.8 19-110.1-70.9-110zm2.1 54.3c6.7 0 16.6 1.1 21.6 7.6l-50.7 9.7c5.7-14.5 22.2-16.8 22.2-16.8s2.9-0.5 6.9-0.5z"/>
<linearGradient id="m" x1="325.05" x2="332.91" y1="1515.4" y2="1632.8" gradientTransform="translate(.00012207 -1218.8)" gradientUnits="userSpaceOnUse">
	<stop stop-color="#F6F9FF" offset="0"/>
	<stop stop-color="#7F9FE2" offset="1"/>
</linearGradient>
<linearGradient id="l" x1="325.05" x2="332.91" y1="1515.4" y2="1632.8" gradientTransform="translate(.00012207 -1218.8)" gradientUnits="userSpaceOnUse">
	<stop stop-color="#4969AC" offset="0"/>
	<stop stop-color="#6A8ECF" offset="1"/>
</linearGradient>
<path class="st8" d="m331.1 296.2c-49.8 0-90.2 40.4-90.2 90.2s40.4 90.2 90.2 90.2 90.2-40.4 90.2-90.2-40.4-90.2-90.2-90.2zm-8.2 52.2c1.5 0 2.9 0.7 3.8 1.8l14.8 16.8 22.1-2.7c2-0.1 3.8 0.6 4.9 2.3 1 1.5 1 3.8 0 5.2l-11.5 19.2 9.1 20.3c0.9 1.8 0.6 3.9-0.6 5.4-0.6 0.8-1.6 1.4-2.6 1.7-0.8 0.2-1.6 0.2-2.4 0l-21.7-4.9-16.5 15.1c-0.7 0.6-1.4 1-2.1 1.2-0.9 0.3-2 0.1-3.1-0.2-1.8-0.7-3.1-2.4-3.2-4.4l-2.1-22-19.5-10.9c-1.9-0.9-2.7-2.7-2.7-4.7 0.1-2 1.2-3.8 3-4.4l20.4-8.7 4.4-21.9c0.5-1.9 1.9-3.5 3.8-4 0.7-0.2 1.2-0.3 1.7-0.2z"/>
<linearGradient id="k" x1="129.86" x2="129.86" y1="1535" y2="1665.8" gradientTransform="translate(.00012207 -1218.8)" gradientUnits="userSpaceOnUse">
	<stop stop-color="#F1F4FF" offset="0"/>
	<stop stop-color="#6B89CD" offset=".67"/>
</linearGradient>
<linearGradient id="j" x1="21.747" x2="237.97" y1="1607.9" y2="1607.9" gradientTransform="translate(.00012207 -1218.8)" gradientUnits="userSpaceOnUse">
	<stop stop-color="#5264AF" offset="0"/>
	<stop stop-color="#4969AC" offset="1"/>
</linearGradient>
<path class="st9" d="m91.8 301.7c-34.8 0-70.2 36.9-65.3 151.2 6.6 29.3 56.7 33.7 65.4 0 0.5-21.5 0.9-45.3 3.3-60.1-3.9 49.5 19.4 53.2 34.7 54.1 15.3-0.9 38.6-4.6 34.7-54.1 2.4 14.7 2.9 38.6 3.3 60.1 8.7 33.7 58.8 29.3 65.4 0 4.8-114.4-30.5-151.2-65.3-151.2-13.6 0-27.1 5.6-38.1 14.4-10.9-8.8-24.4-14.4-38.1-14.4z"/>
</svg>