<?xml version="1.0" encoding="UTF-8"?>
<svg version="1.1" viewBox="0 0 58 18.132" xmlns="http://www.w3.org/2000/svg">
  <g transform="translate(0 -4.1633)">
    <g transform="translate(-75 -135.27)">
      <rect fill="#c34528" x="75" y="139.43" width="18" height="2.5" />
      <rect fill="#c34528" x="75" y="147.25" width="18" height="2.5" />
      <rect fill="#c34528" x="75" y="155.07" width="18" height="2.5" />
    </g>
    <g transform="translate(-71.232 -139.8)">
      <rect fill="#c34528" transform="rotate(-45)" x="-34.719" y="177.88" width="9" height="2.5" />
      <rect fill="#c34528" transform="matrix(-.70711 -.70711 -.70711 .70711 0 0)" x="-190.7"
        y="36.04" width="9"
        height="2.5" />
      <rect fill="#c34528" transform="rotate(-45)" x="-48.861" y="177.88" width="9" height="2.5" />
      <rect fill="#c34528" transform="matrix(-.70711 -.70711 -.70711 .70711 0 0)" x="-176.56"
        y="36.04" width="9"
        height="2.5" />
    </g>
    <g transform="translate(-75 -135.27)">
      <rect fill="#c34528" x="115" y="139.43" width="18" height="2.5" />
      <rect fill="#c34528" x="122.75" y="147.25" width="2.5" height="2.5" />
      <rect fill="#c34528" x="115" y="155.07" width="18" height="2.5" />
    </g>
  </g>
</svg>